<?xml version="1.0" encoding="iso-8859-1"?>
<!-- Generator: Adobe Illustrator 16.0.0, SVG Export Plug-In . SVG Version: 6.00 Build 0)  -->
<!DOCTYPE svg PUBLIC "-//W3C//DTD SVG 1.1//EN" "http://www.w3.org/Graphics/SVG/1.1/DTD/svg11.dtd">
<svg xmlns="http://www.w3.org/2000/svg" xmlns:xlink="http://www.w3.org/1999/xlink" version="1.1" id="Capa_1" x="0px" y="0px" width="512px" height="512px" viewBox="0 0 46.016 46.016" style="enable-background:new 0 0 46.016 46.016;" xml:space="preserve">
<g>
	<g>
		<path d="M38.902,29.442c-0.733,0.865-1.338,1.887-1.748,3.047H8.827c-0.437-1.153-1.079-2.176-1.85-3.047H4.235    c-1.168,0-2.326-0.332-3.331-0.945H0v2.921c0,1.291,0.84,2.687,1.523,3.276c0.543,0.47,1.694,0.945,2.712,0.945h37.544    c2.326,0,4.236-1.897,4.236-4.222v-3.603c-1.123,1.011-2.608,1.627-4.236,1.627H38.902z" fill="#336791"/>
		<path d="M41.779,2.075H4.235C1.91,2.075,0,3.923,0,6.247v16.861c0,1.291,0.839,2.693,1.523,3.287    c0.543,0.47,1.694,0.945,2.712,0.945h37.544c2.326,0,4.236-1.908,4.236-4.232V6.247C46.016,3.923,44.105,2.075,41.779,2.075z     M42.863,18.372c-2.469,0.886-4.686,2.928-5.709,5.816H8.827c-1.054-2.783-3.311-4.829-5.675-5.754v-7.483    c2.417-0.892,4.614-2.888,5.658-5.777h28.37c1.019,3.046,3.163,4.979,5.686,5.831v7.367H42.863z" fill="#336791"/>
		<path d="M22.973,7.227c-4.122,0-7.463,3.341-7.463,7.464c0,4.122,3.341,7.464,7.463,7.464c4.123,0,7.464-3.342,7.464-7.464    C30.438,10.568,27.096,7.227,22.973,7.227z M23.586,18.963v1.391h-1.313v-1.295c-0.946-0.041-1.833-0.289-2.356-0.593l0.408-1.613    c0.579,0.317,1.39,0.606,2.285,0.606c0.786,0,1.322-0.304,1.322-0.854c0-0.524-0.442-0.855-1.462-1.2    c-1.476-0.497-2.479-1.186-2.479-2.524c0-1.213,0.862-2.165,2.333-2.454V9.114h1.366v1.218c0.893,0.041,1.533,0.234,1.987,0.455    l-0.403,1.558c-0.359-0.151-0.996-0.469-1.988-0.469c-0.896,0-1.187,0.386-1.187,0.772c0,0.455,0.48,0.744,1.653,1.186    c1.642,0.579,2.295,1.337,2.295,2.579C26.048,17.64,25.162,18.688,23.586,18.963z" fill="#336791"/>
		<path d="M38.902,37.742c-0.733,0.864-1.338,1.886-1.748,3.046H8.827c-0.437-1.152-1.079-2.176-1.85-3.046H4.235    c-1.168,0-2.326-0.332-3.331-0.946H0v2.922c0,1.291,0.84,2.687,1.523,3.276c0.543,0.47,1.694,0.946,2.712,0.946h37.544    c2.326,0,4.236-1.898,4.236-4.223v-3.603c-1.123,1.011-2.608,1.627-4.236,1.627H38.902z" fill="#336791"/>
	</g>
</g>
<g>
</g>
<g>
</g>
<g>
</g>
<g>
</g>
<g>
</g>
<g>
</g>
<g>
</g>
<g>
</g>
<g>
</g>
<g>
</g>
<g>
</g>
<g>
</g>
<g>
</g>
<g>
</g>
<g>
</g>
</svg>
