<?xml version="1.0" encoding="iso-8859-1"?>
<!-- Generator: Adobe Illustrator 18.0.0, SVG Export Plug-In . SVG Version: 6.00 Build 0)  -->
<!DOCTYPE svg PUBLIC "-//W3C//DTD SVG 1.1//EN" "http://www.w3.org/Graphics/SVG/1.1/DTD/svg11.dtd">
<svg xmlns="http://www.w3.org/2000/svg" xmlns:xlink="http://www.w3.org/1999/xlink" version="1.1" id="Capa_1" x="0px" y="0px" viewBox="0 0 488.091 488.091" style="enable-background:new 0 0 488.091 488.091;" xml:space="preserve" width="512px" height="512px">
<path d="M405.08,118.873h46.976c19.854,0,35.934-16.094,35.934-35.947V35.95c0-19.857-16.08-35.95-35.934-35.95H405.08  c-19.858,0-35.964,16.093-35.964,35.95v11.188h-30.522c-17.867,0-32.439,14.558-32.439,32.44v152.162h-46.258  c-6.227-66.066-61.934-117.931-129.588-117.931c-71.795,0-130.207,58.413-130.207,130.229c0,71.815,58.412,130.225,130.207,130.225  c67.654,0,123.361-51.862,129.588-117.93h46.258v152.178c0,17.887,14.572,32.44,32.439,32.44h30.522v11.193  c0,19.854,16.105,35.944,35.964,35.944h46.976c19.854,0,35.934-16.09,35.934-35.944v-46.978c0-19.856-16.08-35.95-35.934-35.95  H405.08c-19.858,0-35.964,16.094-35.964,35.95v11.189h-30.522c-4.322,0-7.846-3.521-7.846-7.846V256.335h38.367v11.19  c0,19.862,16.105,35.95,35.964,35.95h46.976c19.854,0,35.934-16.088,35.934-35.95v-46.974c0-19.855-16.08-35.949-35.934-35.949  H405.08c-19.858,0-35.964,16.094-35.964,35.949v11.189h-38.367V79.579c0-4.319,3.523-7.845,7.846-7.845h30.522v11.191  C369.116,102.779,385.221,118.873,405.08,118.873z M89.708,143.679c-7.654,10.182-14.06,23.2-18.8,38.331  c-14.844,4.099-27.924,9.668-38.685,16.427C43.752,173.683,64.309,154.002,89.708,143.679z M23.031,229.865  c7.431-11.349,22.832-21.165,42.913-27.985c-2.132,10.822-3.458,22.371-3.904,34.457H22.391  C22.55,234.159,22.76,231.997,23.031,229.865z M23.478,261.014c-0.379-2.373-0.769-4.724-0.989-7.143H62.04  c0.446,12.071,1.772,23.632,3.904,34.474C46.248,281.652,31.04,272.061,23.478,261.014z M33.664,292.653  c10.473,6.354,23.058,11.656,37.244,15.546c4.274,13.638,9.88,25.589,16.557,35.273C64.121,333.367,45.079,315.261,33.664,292.653z   M121.537,351.096c-11.513-4.663-22.657-18.241-30.613-38.428c9.719,1.633,19.997,2.606,30.613,2.962V351.096z M121.537,298.126  c-12.87-0.49-25.203-2.08-36.604-4.545c-2.91-11.852-4.837-25.173-5.379-39.71h41.983V298.126z M121.537,236.337H79.553  c0.542-14.537,2.469-27.842,5.379-39.709c11.401-2.464,23.734-4.033,36.604-4.545V236.337z M121.537,174.579  c-10.616,0.369-20.895,1.344-30.613,2.977c7.956-20.191,19.101-33.787,30.613-38.413V174.579z M228.4,198.436  c-10.761-6.759-23.841-12.328-38.685-16.427c-4.74-15.131-11.145-28.149-18.795-38.331  C196.315,154.002,216.871,173.683,228.4,198.436z M139.086,139.143c11.514,4.626,22.657,18.222,30.614,38.413  c-9.719-1.634-19.998-2.608-30.614-2.977V139.143z M139.086,192.083c12.876,0.512,25.204,2.081,36.605,4.545  c2.931,11.867,4.83,25.172,5.379,39.709h-41.984V192.083z M139.086,253.871h41.984c-0.549,14.537-2.448,27.858-5.379,39.71  c-11.401,2.465-23.729,4.055-36.605,4.545V253.871z M139.086,351.096V315.63c10.616-0.355,20.895-1.329,30.614-2.962  C161.744,332.854,150.6,346.433,139.086,351.096z M173.16,343.473c6.691-9.685,12.298-21.636,16.556-35.273  c14.187-3.905,26.771-9.192,37.245-15.546C215.544,315.261,196.503,333.367,173.16,343.473z M237.141,261.014  c-7.553,11.048-22.766,20.623-42.431,27.317c2.101-10.828,3.444-22.389,3.879-34.46h39.545  C237.91,256.29,237.531,258.641,237.141,261.014z M198.589,236.337c-0.435-12.086-1.778-23.635-3.879-34.457  c20.05,6.835,35.452,16.637,42.883,27.985c0.271,2.132,0.48,4.294,0.64,6.472H198.589z" fill="#336791"/>
<g>
</g>
<g>
</g>
<g>
</g>
<g>
</g>
<g>
</g>
<g>
</g>
<g>
</g>
<g>
</g>
<g>
</g>
<g>
</g>
<g>
</g>
<g>
</g>
<g>
</g>
<g>
</g>
<g>
</g>
</svg>
