<?xml version="1.0" encoding="iso-8859-1"?>
<!-- Generator: Adobe Illustrator 16.0.0, SVG Export Plug-In . SVG Version: 6.00 Build 0)  -->
<!DOCTYPE svg PUBLIC "-//W3C//DTD SVG 1.1//EN" "http://www.w3.org/Graphics/SVG/1.1/DTD/svg11.dtd">
<svg version="1.1" id="Capa_1" xmlns="http://www.w3.org/2000/svg" xmlns:xlink="http://www.w3.org/1999/xlink" x="0px" y="0px"
	 width="48px" height="48px" viewBox="0 0 48 48" style="enable-background:new 0 0 48 48;" xml:space="preserve">
<g>
	<path d="M40.781,8.692l-7.638-7.31C32.346,0.619,30.803,0,29.699,0H7.773c-1.105,0-2,0.896-2,2v44c0,1.104,0.895,2,2,2h32.453
		c1.104,0,2-0.896,2-2V12.075C42.227,10.971,41.58,9.456,40.781,8.692z M37.969,41.092c0,1.104-0.896,2-2,2H11.806
		c-1.104,0-2-0.896-2-2V5.775c0-1.104,0.896-2,2-2h16.519c1.104,0,2,0.896,2,2v3.321c0,1.105,0.896,2,2,2h3.645c1.104,0,2,0.896,2,2
		V41.092z"/>
	<path d="M12.688,24.547h21.833c0.827,0,1.5-0.673,1.5-1.5s-0.673-1.5-1.5-1.5H12.688c-0.827,0-1.5,0.673-1.5,1.5
		S11.86,24.547,12.688,24.547z"/>
	<path d="M34.521,28.713H12.688c-0.827,0-1.5,0.673-1.5,1.5s0.673,1.5,1.5,1.5h21.833c0.827,0,1.5-0.673,1.5-1.5
		S35.349,28.713,34.521,28.713z"/>
	<path d="M31.541,35.88H15.667c-0.827,0-1.5,0.673-1.5,1.5s0.673,1.5,1.5,1.5h15.875c0.828,0,1.5-0.673,1.5-1.5
		S32.369,35.88,31.541,35.88z"/>
	<path d="M19.104,18.668c3.676,0,6.667-2.991,6.667-6.667s-2.991-6.667-6.667-6.667s-6.667,2.991-6.667,6.667
		S15.428,18.668,19.104,18.668z M19.104,8.334c2.022,0,3.667,1.645,3.667,3.667s-1.645,3.667-3.667,3.667s-3.667-1.645-3.667-3.667
		S17.082,8.334,19.104,8.334z"/>
</g>
<g>
</g>
<g>
</g>
<g>
</g>
<g>
</g>
<g>
</g>
<g>
</g>
<g>
</g>
<g>
</g>
<g>
</g>
<g>
</g>
<g>
</g>
<g>
</g>
<g>
</g>
<g>
</g>
<g>
</g>
</svg>
