<?xml version="1.0" encoding="iso-8859-1"?>
<!-- Generator: Adobe Illustrator 18.0.0, SVG Export Plug-In . SVG Version: 6.00 Build 0)  -->
<!DOCTYPE svg PUBLIC "-//W3C//DTD SVG 1.1//EN" "http://www.w3.org/Graphics/SVG/1.1/DTD/svg11.dtd">
<svg version="1.1" id="Capa_1" xmlns="http://www.w3.org/2000/svg" xmlns:xlink="http://www.w3.org/1999/xlink" x="0px" y="0px"
	 viewBox="0 0 495.043 495.043" style="enable-background:new 0 0 495.043 495.043;" xml:space="preserve">
<g id="XMLID_223_">
	<path id="XMLID_227_" d="M475.033,58.33H131.996c-11.053,0-20.012,8.959-20.012,20.011v73.565h251.063
		c29.912,0,54.25,24.34,54.25,54.251v102.741h57.736c11.05,0,20.01-8.961,20.01-20.012V78.341
		C495.043,67.289,486.083,58.33,475.033,58.33z"/>
	<path id="XMLID_224_" d="M363.047,186.145H20.011C8.96,186.145,0,195.106,0,206.157v210.546c0,11.051,8.96,20.011,20.011,20.011
		h343.036c11.053,0,20.012-8.96,20.012-20.011V206.157C383.059,195.106,374.1,186.145,363.047,186.145z M350.848,403.562
		L350.848,403.562c-4.674,4.782-12.224,5.202-17.393,0.963c-29.289-24.016-89.878-74.821-89.878-74.821l-43.848,36.394
		c-2.383,1.977-5.283,2.965-8.201,2.965c-2.914,0-5.816-0.989-8.197-2.965l-43.85-36.394l-89.995,74.708
		c-5.429,4.536-13.529,3.808-18.083-1.677c-4.52-5.453-3.775-13.547,1.685-18.077l86.302-71.636l-86.302-71.63
		c-5.46-4.529-6.204-12.622-1.685-18.075c4.536-5.493,12.641-6.197,18.083-1.677l142.042,117.9l142.043-117.9
		c5.445-4.504,13.548-3.8,18.086,1.677c4.522,5.453,3.775,13.546-1.688,18.075l-86.301,71.63l86.198,71.606
		C355.66,389.441,356.113,398.175,350.848,403.562z"/>
</g>
<g>
</g>
<g>
</g>
<g>
</g>
<g>
</g>
<g>
</g>
<g>
</g>
<g>
</g>
<g>
</g>
<g>
</g>
<g>
</g>
<g>
</g>
<g>
</g>
<g>
</g>
<g>
</g>
<g>
</g>
</svg>
