<?xml version="1.0" encoding="iso-8859-1"?>
<!-- Generator: Adobe Illustrator 19.0.0, SVG Export Plug-In . SVG Version: 6.00 Build 0)  -->
<svg version="1.1" id="Capa_1" xmlns="http://www.w3.org/2000/svg" xmlns:xlink="http://www.w3.org/1999/xlink" x="0px" y="0px"
	 viewBox="0 0 296 296" style="enable-background:new 0 0 296 296;" xml:space="preserve">
<g>
	<path d="M165,100v-8.503C165,82.217,157.721,75,148.439,75h-0.213C138.945,75,131,82.217,131,91.497V100H165z"/>
	<path d="M271.666,16H25C11.215,16,0,27.381,0,41.166V189c0,13.785,11.215,25,25,25h85v28h75v-28h86.666
		C285.451,214,296,202.785,296,189V41.166C296,27.381,285.451,16,271.666,16z M185,119.944v35c0,11.028-8.139,20.056-19.167,20.056
		h-35C119.805,175,110,165.973,110,154.944v-35c0-5.487,2-10.448,6-14.052V91.497C116,73.946,130.674,60,148.227,60h0.213
		C165.992,60,180,73.946,180,91.497v14.968C183,110.015,185,114.736,185,119.944z"/>
	<path d="M213.314,257H83.43c-11.752,0-21.754,11-24.145,23h178.096C235.006,268,225.064,257,213.314,257z"/>
	<path d="M133.755,129.302c0,4.997,2.245,9.399,6.245,11.984v11.566c0,3.949,3.553,7.146,7.502,7.146
		c3.947,0,7.498-3.197,7.498-7.146v-10.959c5-2.462,7.578-7.177,7.578-12.592c0-7.959-6.453-14.412-14.412-14.412
		C140.208,114.89,133.755,121.343,133.755,129.302z"/>
</g>
<g>
</g>
<g>
</g>
<g>
</g>
<g>
</g>
<g>
</g>
<g>
</g>
<g>
</g>
<g>
</g>
<g>
</g>
<g>
</g>
<g>
</g>
<g>
</g>
<g>
</g>
<g>
</g>
<g>
</g>
</svg>
